<svg width="101" height="100" viewBox="0 0 101 100" fill="none" xmlns="http://www.w3.org/2000/svg">
<path d="M50.4482 0.0415039L52.4651 27.6321L59.3761 0.845024L56.4341 28.3523L68.017 3.22976L60.2106 29.7697L76.0932 7.11906L63.6734 31.8386L83.3452 12.3879L66.7111 34.4926L89.5398 18.867L69.2261 37.6463L94.478 26.3481L71.1376 41.1984L98.0011 34.5907L72.3841 45.0348L99.9957 43.3298L72.9256 49.032L100.398 52.2847L72.7446 53.0618L99.1946 61.1675L71.847 56.9944L96.4246 69.6928L70.2616 60.7035L92.1769 77.5863L68.0395 64.07L86.588 84.5946L65.2519 66.9856L79.8375 90.4924L61.9885 69.3566L72.1424 95.09L58.3542 71.1068L63.7501 98.2396L54.4658 72.1799L54.9302 99.8402L50.4482 72.5415L45.9663 99.8402L46.4307 72.1799L37.1464 98.2396L42.5423 71.1068L28.7541 95.09L38.908 69.3566L21.059 90.4924L35.6446 66.9856L14.3085 84.5946L32.857 64.07L8.71958 77.5863L30.6348 60.7035L4.47186 69.6928L29.0495 56.9944L1.70185 61.1675L28.1519 53.0618L0.498589 52.2847L27.9709 49.032L0.900753 43.3298L28.5124 45.0348L2.89542 34.5907L29.7589 41.1984L6.41846 26.3481L31.6703 37.6463L11.3567 18.867L34.1854 34.4926L17.5513 12.3879L37.2231 31.8386L24.8033 7.11906L40.6859 29.7697L32.8795 3.22976L44.4624 28.3523L41.5204 0.845024L48.4314 27.6321L50.4482 0.0415039Z" fill="black"/>
</svg>
