<svg width="101" height="101" viewBox="0 0 101 101" fill="none" xmlns="http://www.w3.org/2000/svg">
<path d="M50.4482 0.881348L53.0488 31.9609L63.9381 2.73549L58.057 33.3642L76.4274 8.16038L62.5009 36.0666L86.99 16.7537L66.051 39.8677L94.8425 27.8781L68.4438 44.4857L99.4025 40.7085L69.502 49.578L100.332 54.2935L69.1471 54.767L97.5613 67.6253L67.4053 59.6678L91.2967 79.7154L64.406 63.917L82.0026 89.6669L60.3714 67.1993L70.3683 96.7419L55.6009 69.2714L57.2566 100.416L50.4482 69.9796L43.6399 100.416L45.2956 69.2714L30.5282 96.7419L40.5251 67.1993L18.8938 89.6669L36.4905 63.917L9.59975 79.7154L33.4911 59.6678L3.3352 67.6253L31.7494 54.767L0.564804 54.2935L31.3945 49.578L1.49404 40.7085L32.4527 44.4857L6.05398 27.8781L34.8455 39.8677L13.9064 16.7537L38.3955 36.0666L24.469 8.16038L42.8395 33.3642L36.9584 2.73549L47.8477 31.9609L50.4482 0.881348Z" fill="black"/>
</svg>
