<?xml version="1.0" standalone="no"?>
<!DOCTYPE svg PUBLIC "-//W3C//DTD SVG 20010904//EN"
 "http://www.w3.org/TR/2001/REC-SVG-20010904/DTD/svg10.dtd">
<svg version="1.0" xmlns="http://www.w3.org/2000/svg"
 width="324.000000pt" height="324.000000pt" viewBox="0 0 324.000000 324.000000"
 preserveAspectRatio="xMidYMid meet">
<metadata>
Created by potrace 1.14, written by Peter Selinger 2001-2017
</metadata>
<g transform="translate(0.000000,324.000000) scale(0.100000,-0.100000)"
fill="#000000" stroke="none">
<path d="M1400 3224 c-208 -31 -452 -127 -627 -247 -276 -188 -488 -477 -586
-797 -49 -157 -67 -297 -63 -475 2 -88 7 -171 10 -185 4 -14 8 -38 10 -55 2
-16 9 -50 16 -75 22 -79 41 -145 47 -160 4 -8 7 -17 8 -20 8 -23 23 -57 56
-128 21 -45 39 -84 39 -87 0 -3 9 -15 20 -27 11 -12 20 -25 20 -30 0 -16 4
-23 24 -39 18 -15 19 -19 6 -35 -14 -17 -13 -18 1 -6 14 10 19 9 32 -12 9 -13
32 -41 51 -62 19 -21 33 -42 30 -46 -3 -4 1 -8 9 -8 19 0 30 -27 14 -34 -7 -3
-2 -3 11 0 16 4 22 1 22 -10 0 -9 4 -16 8 -16 5 0 29 -18 53 -41 24 -22 55
-49 69 -60 83 -64 122 -90 159 -110 25 -12 38 -26 34 -32 -3 -7 -3 -9 1 -5 10
8 66 -11 66 -23 0 -5 7 -9 15 -9 8 0 30 -9 50 -20 20 -11 42 -20 50 -20 8 0
15 -5 15 -10 0 -6 3 -9 8 -8 16 3 68 -16 80 -31 8 -9 10 -10 6 -2 -9 17 33 5
60 -18 11 -9 16 -10 12 -3 -9 15 20 17 29 2 3 -6 24 -10 46 -10 21 0 39 -4 39
-9 0 -4 13 -7 30 -5 20 2 32 -2 39 -14 6 -9 11 -12 11 -4 0 6 7 12 15 12 8 0
15 -6 15 -12 0 -8 3 -9 8 -3 10 14 32 17 32 5 0 -7 6 -7 19 0 11 5 22 7 24 3
6 -9 158 -8 196 1 14 3 31 0 40 -7 12 -10 13 -9 6 2 -6 11 -3 13 13 9 12 -4
24 -3 27 2 3 4 20 7 39 6 19 -1 32 3 28 8 -3 5 1 7 10 4 8 -4 21 -2 29 2 8 5
19 4 28 -3 12 -10 13 -9 6 2 -6 11 -4 13 8 8 10 -3 17 -2 17 3 0 12 36 14 43
3 2 -5 3 -3 1 3 -1 6 23 19 54 28 73 22 79 24 187 77 49 24 93 43 97 41 5 -1
8 3 8 9 0 6 7 8 16 5 8 -3 13 -2 9 3 -3 5 17 23 44 39 27 17 79 56 115 87 38
31 71 53 78 49 6 -4 9 -3 5 2 -8 14 20 47 34 38 8 -4 10 -3 5 4 -4 7 -2 12 5
12 7 0 10 3 6 6 -3 3 10 22 30 42 19 21 46 52 60 69 14 18 28 31 32 28 4 -2 8
1 8 8 0 21 89 147 98 140 4 -5 5 -2 1 4 -8 14 22 73 37 73 4 0 6 4 2 9 -3 6 3
25 13 43 10 18 29 63 42 100 14 36 27 65 31 62 4 -2 6 4 5 13 -2 10 0 28 5 40
17 47 48 211 53 285 2 25 7 51 10 56 3 6 2 13 -4 17 -6 4 -8 10 -6 14 13 21 6
162 -15 296 -58 373 -272 723 -585 959 -147 110 -417 233 -573 261 -14 2 -51
10 -81 16 -85 17 -351 19 -460 3z"/>
<path d="M2755 741 c-3 -5 -2 -12 3 -15 5 -3 9 1 9 9 0 17 -3 19 -12 6z"/>
<path d="M2725 680 c-3 -6 1 -7 9 -4 18 7 21 14 7 14 -6 0 -13 -4 -16 -10z"/>
<path d="M576 622 c-3 -5 1 -9 9 -9 8 0 12 4 9 9 -3 4 -7 8 -9 8 -2 0 -6 -4
-9 -8z"/>
<path d="M759 473 c-13 -16 -12 -17 4 -4 16 13 21 21 13 21 -2 0 -10 -8 -17
-17z"/>
<path d="M894 396 c1 -8 5 -18 8 -22 4 -3 5 1 4 10 -1 8 -5 18 -8 22 -4 3 -5
-1 -4 -10z"/>
<path d="M993 315 c0 -8 4 -12 9 -9 5 3 6 10 3 15 -9 13 -12 11 -12 -6z"/>
<path d="M2170 320 c0 -5 5 -10 11 -10 5 0 7 5 4 10 -3 6 -8 10 -11 10 -2 0
-4 -4 -4 -10z"/>
<path d="M2095 299 c-3 -4 2 -6 10 -5 21 3 28 13 10 13 -9 0 -18 -4 -20 -8z"/>
<path d="M1233 235 c0 -8 4 -12 9 -9 5 3 6 10 3 15 -9 13 -12 11 -12 -6z"/>
<path d="M1273 235 c0 -8 4 -12 9 -9 4 3 8 9 8 15 0 5 -4 9 -8 9 -5 0 -9 -7
-9 -15z"/>
<path d="M1935 240 c3 -5 8 -10 11 -10 2 0 4 5 4 10 0 6 -5 10 -11 10 -5 0 -7
-4 -4 -10z"/>
<path d="M1335 220 c-3 -5 -1 -10 4 -10 6 0 11 5 11 10 0 6 -2 10 -4 10 -3 0
-8 -4 -11 -10z"/>
<path d="M1899 228 c-5 -18 -6 -38 -1 -34 7 8 12 36 6 36 -2 0 -4 -1 -5 -2z"/>
<path d="M1590 200 c0 -5 5 -10 11 -10 5 0 7 5 4 10 -3 6 -8 10 -11 10 -2 0
-4 -4 -4 -10z"/>
<path d="M1636 202 c-3 -5 1 -9 9 -9 8 0 12 4 9 9 -3 4 -7 8 -9 8 -2 0 -6 -4
-9 -8z"/>
<path d="M1533 175 c0 -8 4 -12 9 -9 5 3 6 10 3 15 -9 13 -12 11 -12 -6z"/>
<path d="M1396 158 c3 -5 10 -6 15 -3 13 9 11 12 -6 12 -8 0 -12 -4 -9 -9z"/>
</g>
</svg>
